# xmcd
#
# Track frame offsets: 
#        150
#        11501
#        30283
#        45655
#        66748
#        80264
#        91488
#        110543
#        120223
#        128053
#        141770
#        159551
#        171746
#
# Disc length: 2570 seconds
#
# Revision: 4
# Processed by: cddbd v1.5.2PL0 Copyright (c) Steve Scherf et al.
# Submitted via: ExactAudioCopy v1.0b1
#
DISCID=a80a080d
DTITLE=Verdena - wow disc 1
DYEAR=2010
DGENRE=Alternative
TTITLE0=scegli me (un mondo che tu non vuoi)
TTITLE1=loniterp
TTITLE2=per sbaglio
TTITLE3=mi coltivo
TTITLE4=razzi arpia inverno e fiamme
TTITLE5=adoratorio
TTITLE6=miglioramento
TTITLE7=il nulla di o.
TTITLE8=lui gareggia
TTITLE9=le scarpe volanti
TTITLE10=castelli per aria
TTITLE11=sorriso in spiaggia pt. i
TTITLE12=sorriso in spiaggia pt. ii
EXTD=
EXTT0=
EXTT1=
EXTT2=
EXTT3=
EXTT4=
EXTT5=
EXTT6=
EXTT7=
EXTT8=
EXTT9=
EXTT10=
EXTT11=
EXTT12=
PLAYORDER=
